<svg xmlns="http://www.w3.org/2000/svg" version="1.1" xmlns:xlink="http://www.w3.org/1999/xlink" xmlns:svgjs="http://svgjs.dev/svgjs" viewBox="0 0 800 800" width="800" height="800"><g stroke-width="0.75" stroke="hsla(0, 0%, 95%, 1.00)" fill="none"><rect width="33.333333333333336" height="1.631578947368421" x="-16.666666666666668" y="-0.8157894736842105" stroke="none" fill="hsla(0, 0%, 95%, 1.00)" rx="0.8157894736842105"></rect><rect width="1.631578947368421" height="33.333333333333336" x="-0.8157894736842105" y="-16.666666666666668" stroke="none" fill="hsla(0, 0%, 95%, 1.00)" rx="0.8157894736842105"></rect><rect width="33.333333333333336" height="1.631578947368421" x="50" y="-0.8157894736842105" stroke="none" fill="hsla(0, 0%, 95%, 1.00)" rx="0.8157894736842105"></rect><rect width="1.631578947368421" height="33.333333333333336" x="65.85087719298247" y="-16.666666666666668" stroke="none" fill="hsla(0, 0%, 95%, 1.00)" rx="0.8157894736842105"></rect><rect width="33.333333333333336" height="1.631578947368421" x="116.66666666666667" y="-0.8157894736842105" stroke="none" fill="hsla(0, 0%, 95%, 1.00)" rx="0.8157894736842105"></rect><rect width="1.631578947368421" height="33.333333333333336" x="132.51754385964912" y="-16.666666666666668" stroke="none" fill="hsla(0, 0%, 95%, 1.00)" rx="0.8157894736842105"></rect><rect width="33.333333333333336" height="1.631578947368421" x="183.33333333333334" y="-0.8157894736842105" stroke="none" fill="hsla(0, 0%, 95%, 1.00)" rx="0.8157894736842105"></rect><rect width="1.631578947368421" height="33.333333333333336" x="199.18421052631578" y="-16.666666666666668" stroke="none" fill="hsla(0, 0%, 95%, 1.00)" rx="0.8157894736842105"></rect><rect width="33.333333333333336" height="1.631578947368421" x="250.00000000000003" y="-0.8157894736842105" stroke="none" fill="hsla(0, 0%, 95%, 1.00)" rx="0.8157894736842105"></rect><rect width="1.631578947368421" height="33.333333333333336" x="265.85087719298247" y="-16.666666666666668" stroke="none" fill="hsla(0, 0%, 95%, 1.00)" rx="0.8157894736842105"></rect><rect width="33.333333333333336" height="1.631578947368421" x="316.6666666666667" y="-0.8157894736842105" stroke="none" fill="hsla(0, 0%, 95%, 1.00)" rx="0.8157894736842105"></rect><rect width="1.631578947368421" height="33.333333333333336" x="332.51754385964915" y="-16.666666666666668" stroke="none" fill="hsla(0, 0%, 95%, 1.00)" rx="0.8157894736842105"></rect><rect width="33.333333333333336" height="1.631578947368421" x="383.33333333333337" y="-0.8157894736842105" stroke="none" fill="hsla(0, 0%, 95%, 1.00)" rx="0.8157894736842105"></rect><rect width="1.631578947368421" height="33.333333333333336" x="399.18421052631584" y="-16.666666666666668" stroke="none" fill="hsla(0, 0%, 95%, 1.00)" rx="0.8157894736842105"></rect><rect width="33.333333333333336" height="1.631578947368421" x="450.00000000000006" y="-0.8157894736842105" stroke="none" fill="hsla(0, 0%, 95%, 1.00)" rx="0.8157894736842105"></rect><rect width="1.631578947368421" height="33.333333333333336" x="465.8508771929825" y="-16.666666666666668" stroke="none" fill="hsla(0, 0%, 95%, 1.00)" rx="0.8157894736842105"></rect><rect width="33.333333333333336" height="1.631578947368421" x="516.6666666666667" y="-0.8157894736842105" stroke="none" fill="hsla(0, 0%, 95%, 1.00)" rx="0.8157894736842105"></rect><rect width="1.631578947368421" height="33.333333333333336" x="532.5175438596492" y="-16.666666666666668" stroke="none" fill="hsla(0, 0%, 95%, 1.00)" rx="0.8157894736842105"></rect><rect width="33.333333333333336" height="1.631578947368421" x="583.3333333333334" y="-0.8157894736842105" stroke="none" fill="hsla(0, 0%, 95%, 1.00)" rx="0.8157894736842105"></rect><rect width="1.631578947368421" height="33.333333333333336" x="599.1842105263158" y="-16.666666666666668" stroke="none" fill="hsla(0, 0%, 95%, 1.00)" rx="0.8157894736842105"></rect><rect width="33.333333333333336" height="1.631578947368421" x="650" y="-0.8157894736842105" stroke="none" fill="hsla(0, 0%, 95%, 1.00)" rx="0.8157894736842105"></rect><rect width="1.631578947368421" height="33.333333333333336" x="665.8508771929825" y="-16.666666666666668" stroke="none" fill="hsla(0, 0%, 95%, 1.00)" rx="0.8157894736842105"></rect><rect width="33.333333333333336" height="1.631578947368421" x="716.6666666666666" y="-0.8157894736842105" stroke="none" fill="hsla(0, 0%, 95%, 1.00)" rx="0.8157894736842105"></rect><rect width="1.631578947368421" height="33.333333333333336" x="732.5175438596491" y="-16.666666666666668" stroke="none" fill="hsla(0, 0%, 95%, 1.00)" rx="0.8157894736842105"></rect><rect width="33.333333333333336" height="1.631578947368421" x="783.3333333333333" y="-0.8157894736842105" stroke="none" fill="hsla(0, 0%, 95%, 1.00)" rx="0.8157894736842105"></rect><rect width="1.631578947368421" height="33.333333333333336" x="799.1842105263157" y="-16.666666666666668" stroke="none" fill="hsla(0, 0%, 95%, 1.00)" rx="0.8157894736842105"></rect><rect width="33.333333333333336" height="1.631578947368421" x="-16.666666666666668" y="65.85087719298247" stroke="none" fill="hsla(0, 0%, 95%, 1.00)" rx="0.8157894736842105"></rect><rect width="1.631578947368421" height="33.333333333333336" x="-0.8157894736842105" y="50" stroke="none" fill="hsla(0, 0%, 95%, 1.00)" rx="0.8157894736842105"></rect><rect width="33.333333333333336" height="1.631578947368421" x="50" y="65.85087719298247" stroke="none" fill="hsla(0, 0%, 95%, 1.00)" rx="0.8157894736842105"></rect><rect width="1.631578947368421" height="33.333333333333336" x="65.85087719298247" y="50" stroke="none" fill="hsla(0, 0%, 95%, 1.00)" rx="0.8157894736842105"></rect><rect width="33.333333333333336" height="1.631578947368421" x="116.66666666666667" y="65.85087719298247" stroke="none" fill="hsla(0, 0%, 95%, 1.00)" rx="0.8157894736842105"></rect><rect width="1.631578947368421" height="33.333333333333336" x="132.51754385964912" y="50" stroke="none" fill="hsla(0, 0%, 95%, 1.00)" rx="0.8157894736842105"></rect><rect width="33.333333333333336" height="1.631578947368421" x="183.33333333333334" y="65.85087719298247" stroke="none" fill="hsla(0, 0%, 95%, 1.00)" rx="0.8157894736842105"></rect><rect width="1.631578947368421" height="33.333333333333336" x="199.18421052631578" y="50" stroke="none" fill="hsla(0, 0%, 95%, 1.00)" rx="0.8157894736842105"></rect><rect width="33.333333333333336" height="1.631578947368421" x="250.00000000000003" y="65.85087719298247" stroke="none" fill="hsla(0, 0%, 95%, 1.00)" rx="0.8157894736842105"></rect><rect width="1.631578947368421" height="33.333333333333336" x="265.85087719298247" y="50" stroke="none" fill="hsla(0, 0%, 95%, 1.00)" rx="0.8157894736842105"></rect><rect width="33.333333333333336" height="1.631578947368421" x="316.6666666666667" y="65.85087719298247" stroke="none" fill="hsla(0, 0%, 95%, 1.00)" rx="0.8157894736842105"></rect><rect width="1.631578947368421" height="33.333333333333336" x="332.51754385964915" y="50" stroke="none" fill="hsla(0, 0%, 95%, 1.00)" rx="0.8157894736842105"></rect><rect width="33.333333333333336" height="1.631578947368421" x="383.33333333333337" y="65.85087719298247" stroke="none" fill="hsla(0, 0%, 95%, 1.00)" rx="0.8157894736842105"></rect><rect width="1.631578947368421" height="33.333333333333336" x="399.18421052631584" y="50" stroke="none" fill="hsla(0, 0%, 95%, 1.00)" rx="0.8157894736842105"></rect><rect width="33.333333333333336" height="1.631578947368421" x="450.00000000000006" y="65.85087719298247" stroke="none" fill="hsla(0, 0%, 95%, 1.00)" rx="0.8157894736842105"></rect><rect width="1.631578947368421" height="33.333333333333336" x="465.8508771929825" y="50" stroke="none" fill="hsla(0, 0%, 95%, 1.00)" rx="0.8157894736842105"></rect><rect width="33.333333333333336" height="1.631578947368421" x="516.6666666666667" y="65.85087719298247" stroke="none" fill="hsla(0, 0%, 95%, 1.00)" rx="0.8157894736842105"></rect><rect width="1.631578947368421" height="33.333333333333336" x="532.5175438596492" y="50" stroke="none" fill="hsla(0, 0%, 95%, 1.00)" rx="0.8157894736842105"></rect><rect width="33.333333333333336" height="1.631578947368421" x="583.3333333333334" y="65.85087719298247" stroke="none" fill="hsla(0, 0%, 95%, 1.00)" rx="0.8157894736842105"></rect><rect width="1.631578947368421" height="33.333333333333336" x="599.1842105263158" y="50" stroke="none" fill="hsla(0, 0%, 95%, 1.00)" rx="0.8157894736842105"></rect><rect width="33.333333333333336" height="1.631578947368421" x="650" y="65.85087719298247" stroke="none" fill="hsla(0, 0%, 95%, 1.00)" rx="0.8157894736842105"></rect><rect width="1.631578947368421" height="33.333333333333336" x="665.8508771929825" y="50" stroke="none" fill="hsla(0, 0%, 95%, 1.00)" rx="0.8157894736842105"></rect><rect width="33.333333333333336" height="1.631578947368421" x="716.6666666666666" y="65.85087719298247" stroke="none" fill="hsla(0, 0%, 95%, 1.00)" rx="0.8157894736842105"></rect><rect width="1.631578947368421" height="33.333333333333336" x="732.5175438596491" y="50" stroke="none" fill="hsla(0, 0%, 95%, 1.00)" rx="0.8157894736842105"></rect><rect width="33.333333333333336" height="1.631578947368421" x="783.3333333333333" y="65.85087719298247" stroke="none" fill="hsla(0, 0%, 95%, 1.00)" rx="0.8157894736842105"></rect><rect width="1.631578947368421" height="33.333333333333336" x="799.1842105263157" y="50" stroke="none" fill="hsla(0, 0%, 95%, 1.00)" rx="0.8157894736842105"></rect><rect width="33.333333333333336" height="1.631578947368421" x="-16.666666666666668" y="132.51754385964912" stroke="none" fill="hsla(0, 0%, 95%, 1.00)" rx="0.8157894736842105"></rect><rect width="1.631578947368421" height="33.333333333333336" x="-0.8157894736842105" y="116.66666666666667" stroke="none" fill="hsla(0, 0%, 95%, 1.00)" rx="0.8157894736842105"></rect><rect width="33.333333333333336" height="1.631578947368421" x="50" y="132.51754385964912" stroke="none" fill="hsla(0, 0%, 95%, 1.00)" rx="0.8157894736842105"></rect><rect width="1.631578947368421" height="33.333333333333336" x="65.85087719298247" y="116.66666666666667" stroke="none" fill="hsla(0, 0%, 95%, 1.00)" rx="0.8157894736842105"></rect><rect width="33.333333333333336" height="1.631578947368421" x="116.66666666666667" y="132.51754385964912" stroke="none" fill="hsla(0, 0%, 95%, 1.00)" rx="0.8157894736842105"></rect><rect width="1.631578947368421" height="33.333333333333336" x="132.51754385964912" y="116.66666666666667" stroke="none" fill="hsla(0, 0%, 95%, 1.00)" rx="0.8157894736842105"></rect><rect width="33.333333333333336" height="1.631578947368421" x="183.33333333333334" y="132.51754385964912" stroke="none" fill="hsla(0, 0%, 95%, 1.00)" rx="0.8157894736842105"></rect><rect width="1.631578947368421" height="33.333333333333336" x="199.18421052631578" y="116.66666666666667" stroke="none" fill="hsla(0, 0%, 95%, 1.00)" rx="0.8157894736842105"></rect><rect width="33.333333333333336" height="1.631578947368421" x="250.00000000000003" y="132.51754385964912" stroke="none" fill="hsla(0, 0%, 95%, 1.00)" rx="0.8157894736842105"></rect><rect width="1.631578947368421" height="33.333333333333336" x="265.85087719298247" y="116.66666666666667" stroke="none" fill="hsla(0, 0%, 95%, 1.00)" rx="0.8157894736842105"></rect><rect width="33.333333333333336" height="1.631578947368421" x="316.6666666666667" y="132.51754385964912" stroke="none" fill="hsla(0, 0%, 95%, 1.00)" rx="0.8157894736842105"></rect><rect width="1.631578947368421" height="33.333333333333336" x="332.51754385964915" y="116.66666666666667" stroke="none" fill="hsla(0, 0%, 95%, 1.00)" rx="0.8157894736842105"></rect><rect width="33.333333333333336" height="1.631578947368421" x="383.33333333333337" y="132.51754385964912" stroke="none" fill="hsla(0, 0%, 95%, 1.00)" rx="0.8157894736842105"></rect><rect width="1.631578947368421" height="33.333333333333336" x="399.18421052631584" y="116.66666666666667" stroke="none" fill="hsla(0, 0%, 95%, 1.00)" rx="0.8157894736842105"></rect><rect width="33.333333333333336" height="1.631578947368421" x="450.00000000000006" y="132.51754385964912" stroke="none" fill="hsla(0, 0%, 95%, 1.00)" rx="0.8157894736842105"></rect><rect width="1.631578947368421" height="33.333333333333336" x="465.8508771929825" y="116.66666666666667" stroke="none" fill="hsla(0, 0%, 95%, 1.00)" rx="0.8157894736842105"></rect><rect width="33.333333333333336" height="1.631578947368421" x="516.6666666666667" y="132.51754385964912" stroke="none" fill="hsla(0, 0%, 95%, 1.00)" rx="0.8157894736842105"></rect><rect width="1.631578947368421" height="33.333333333333336" x="532.5175438596492" y="116.66666666666667" stroke="none" fill="hsla(0, 0%, 95%, 1.00)" rx="0.8157894736842105"></rect><rect width="33.333333333333336" height="1.631578947368421" x="583.3333333333334" y="132.51754385964912" stroke="none" fill="hsla(0, 0%, 95%, 1.00)" rx="0.8157894736842105"></rect><rect width="1.631578947368421" height="33.333333333333336" x="599.1842105263158" y="116.66666666666667" stroke="none" fill="hsla(0, 0%, 95%, 1.00)" rx="0.8157894736842105"></rect><rect width="33.333333333333336" height="1.631578947368421" x="650" y="132.51754385964912" stroke="none" fill="hsla(0, 0%, 95%, 1.00)" rx="0.8157894736842105"></rect><rect width="1.631578947368421" height="33.333333333333336" x="665.8508771929825" y="116.66666666666667" stroke="none" fill="hsla(0, 0%, 95%, 1.00)" rx="0.8157894736842105"></rect><rect width="33.333333333333336" height="1.631578947368421" x="716.6666666666666" y="132.51754385964912" stroke="none" fill="hsla(0, 0%, 95%, 1.00)" rx="0.8157894736842105"></rect><rect width="1.631578947368421" height="33.333333333333336" x="732.5175438596491" y="116.66666666666667" stroke="none" fill="hsla(0, 0%, 95%, 1.00)" rx="0.8157894736842105"></rect><rect width="33.333333333333336" height="1.631578947368421" x="783.3333333333333" y="132.51754385964912" stroke="none" fill="hsla(0, 0%, 95%, 1.00)" rx="0.8157894736842105"></rect><rect width="1.631578947368421" height="33.333333333333336" x="799.1842105263157" y="116.66666666666667" stroke="none" fill="hsla(0, 0%, 95%, 1.00)" rx="0.8157894736842105"></rect><rect width="33.333333333333336" height="1.631578947368421" x="-16.666666666666668" y="199.18421052631578" stroke="none" fill="hsla(0, 0%, 95%, 1.00)" rx="0.8157894736842105"></rect><rect width="1.631578947368421" height="33.333333333333336" x="-0.8157894736842105" y="183.33333333333334" stroke="none" fill="hsla(0, 0%, 95%, 1.00)" rx="0.8157894736842105"></rect><rect width="33.333333333333336" height="1.631578947368421" x="50" y="199.18421052631578" stroke="none" fill="hsla(0, 0%, 95%, 1.00)" rx="0.8157894736842105"></rect><rect width="1.631578947368421" height="33.333333333333336" x="65.85087719298247" y="183.33333333333334" stroke="none" fill="hsla(0, 0%, 95%, 1.00)" rx="0.8157894736842105"></rect><rect width="33.333333333333336" height="1.631578947368421" x="116.66666666666667" y="199.18421052631578" stroke="none" fill="hsla(0, 0%, 95%, 1.00)" rx="0.8157894736842105"></rect><rect width="1.631578947368421" height="33.333333333333336" x="132.51754385964912" y="183.33333333333334" stroke="none" fill="hsla(0, 0%, 95%, 1.00)" rx="0.8157894736842105"></rect><rect width="33.333333333333336" height="1.631578947368421" x="183.33333333333334" y="199.18421052631578" stroke="none" fill="hsla(0, 0%, 95%, 1.00)" rx="0.8157894736842105"></rect><rect width="1.631578947368421" height="33.333333333333336" x="199.18421052631578" y="183.33333333333334" stroke="none" fill="hsla(0, 0%, 95%, 1.00)" rx="0.8157894736842105"></rect><rect width="33.333333333333336" height="1.631578947368421" x="250.00000000000003" y="199.18421052631578" stroke="none" fill="hsla(0, 0%, 95%, 1.00)" rx="0.8157894736842105"></rect><rect width="1.631578947368421" height="33.333333333333336" x="265.85087719298247" y="183.33333333333334" stroke="none" fill="hsla(0, 0%, 95%, 1.00)" rx="0.8157894736842105"></rect><rect width="33.333333333333336" height="1.631578947368421" x="316.6666666666667" y="199.18421052631578" stroke="none" fill="hsla(0, 0%, 95%, 1.00)" rx="0.8157894736842105"></rect><rect width="1.631578947368421" height="33.333333333333336" x="332.51754385964915" y="183.33333333333334" stroke="none" fill="hsla(0, 0%, 95%, 1.00)" rx="0.8157894736842105"></rect><rect width="33.333333333333336" height="1.631578947368421" x="383.33333333333337" y="199.18421052631578" stroke="none" fill="hsla(0, 0%, 95%, 1.00)" rx="0.8157894736842105"></rect><rect width="1.631578947368421" height="33.333333333333336" x="399.18421052631584" y="183.33333333333334" stroke="none" fill="hsla(0, 0%, 95%, 1.00)" rx="0.8157894736842105"></rect><rect width="33.333333333333336" height="1.631578947368421" x="450.00000000000006" y="199.18421052631578" stroke="none" fill="hsla(0, 0%, 95%, 1.00)" rx="0.8157894736842105"></rect><rect width="1.631578947368421" height="33.333333333333336" x="465.8508771929825" y="183.33333333333334" stroke="none" fill="hsla(0, 0%, 95%, 1.00)" rx="0.8157894736842105"></rect><rect width="33.333333333333336" height="1.631578947368421" x="516.6666666666667" y="199.18421052631578" stroke="none" fill="hsla(0, 0%, 95%, 1.00)" rx="0.8157894736842105"></rect><rect width="1.631578947368421" height="33.333333333333336" x="532.5175438596492" y="183.33333333333334" stroke="none" fill="hsla(0, 0%, 95%, 1.00)" rx="0.8157894736842105"></rect><rect width="33.333333333333336" height="1.631578947368421" x="583.3333333333334" y="199.18421052631578" stroke="none" fill="hsla(0, 0%, 95%, 1.00)" rx="0.8157894736842105"></rect><rect width="1.631578947368421" height="33.333333333333336" x="599.1842105263158" y="183.33333333333334" stroke="none" fill="hsla(0, 0%, 95%, 1.00)" rx="0.8157894736842105"></rect><rect width="33.333333333333336" height="1.631578947368421" x="650" y="199.18421052631578" stroke="none" fill="hsla(0, 0%, 95%, 1.00)" rx="0.8157894736842105"></rect><rect width="1.631578947368421" height="33.333333333333336" x="665.8508771929825" y="183.33333333333334" stroke="none" fill="hsla(0, 0%, 95%, 1.00)" rx="0.8157894736842105"></rect><rect width="33.333333333333336" height="1.631578947368421" x="716.6666666666666" y="199.18421052631578" stroke="none" fill="hsla(0, 0%, 95%, 1.00)" rx="0.8157894736842105"></rect><rect width="1.631578947368421" height="33.333333333333336" x="732.5175438596491" y="183.33333333333334" stroke="none" fill="hsla(0, 0%, 95%, 1.00)" rx="0.8157894736842105"></rect><rect width="33.333333333333336" height="1.631578947368421" x="783.3333333333333" y="199.18421052631578" stroke="none" fill="hsla(0, 0%, 95%, 1.00)" rx="0.8157894736842105"></rect><rect width="1.631578947368421" height="33.333333333333336" x="799.1842105263157" y="183.33333333333334" stroke="none" fill="hsla(0, 0%, 95%, 1.00)" rx="0.8157894736842105"></rect><rect width="33.333333333333336" height="1.631578947368421" x="-16.666666666666668" y="265.85087719298247" stroke="none" fill="hsla(0, 0%, 95%, 1.00)" rx="0.8157894736842105"></rect><rect width="1.631578947368421" height="33.333333333333336" x="-0.8157894736842105" y="250.00000000000003" stroke="none" fill="hsla(0, 0%, 95%, 1.00)" rx="0.8157894736842105"></rect><rect width="33.333333333333336" height="1.631578947368421" x="50" y="265.85087719298247" stroke="none" fill="hsla(0, 0%, 95%, 1.00)" rx="0.8157894736842105"></rect><rect width="1.631578947368421" height="33.333333333333336" x="65.85087719298247" y="250.00000000000003" stroke="none" fill="hsla(0, 0%, 95%, 1.00)" rx="0.8157894736842105"></rect><rect width="33.333333333333336" height="1.631578947368421" x="116.66666666666667" y="265.85087719298247" stroke="none" fill="hsla(0, 0%, 95%, 1.00)" rx="0.8157894736842105"></rect><rect width="1.631578947368421" height="33.333333333333336" x="132.51754385964912" y="250.00000000000003" stroke="none" fill="hsla(0, 0%, 95%, 1.00)" rx="0.8157894736842105"></rect><rect width="33.333333333333336" height="1.631578947368421" x="183.33333333333334" y="265.85087719298247" stroke="none" fill="hsla(0, 0%, 95%, 1.00)" rx="0.8157894736842105"></rect><rect width="1.631578947368421" height="33.333333333333336" x="199.18421052631578" y="250.00000000000003" stroke="none" fill="hsla(0, 0%, 95%, 1.00)" rx="0.8157894736842105"></rect><rect width="33.333333333333336" height="1.631578947368421" x="250.00000000000003" y="265.85087719298247" stroke="none" fill="hsla(0, 0%, 95%, 1.00)" rx="0.8157894736842105"></rect><rect width="1.631578947368421" height="33.333333333333336" x="265.85087719298247" y="250.00000000000003" stroke="none" fill="hsla(0, 0%, 95%, 1.00)" rx="0.8157894736842105"></rect><rect width="33.333333333333336" height="1.631578947368421" x="316.6666666666667" y="265.85087719298247" stroke="none" fill="hsla(0, 0%, 95%, 1.00)" rx="0.8157894736842105"></rect><rect width="1.631578947368421" height="33.333333333333336" x="332.51754385964915" y="250.00000000000003" stroke="none" fill="hsla(0, 0%, 95%, 1.00)" rx="0.8157894736842105"></rect><rect width="33.333333333333336" height="1.631578947368421" x="383.33333333333337" y="265.85087719298247" stroke="none" fill="hsla(0, 0%, 95%, 1.00)" rx="0.8157894736842105"></rect><rect width="1.631578947368421" height="33.333333333333336" x="399.18421052631584" y="250.00000000000003" stroke="none" fill="hsla(0, 0%, 95%, 1.00)" rx="0.8157894736842105"></rect><rect width="33.333333333333336" height="1.631578947368421" x="450.00000000000006" y="265.85087719298247" stroke="none" fill="hsla(0, 0%, 95%, 1.00)" rx="0.8157894736842105"></rect><rect width="1.631578947368421" height="33.333333333333336" x="465.8508771929825" y="250.00000000000003" stroke="none" fill="hsla(0, 0%, 95%, 1.00)" rx="0.8157894736842105"></rect><rect width="33.333333333333336" height="1.631578947368421" x="516.6666666666667" y="265.85087719298247" stroke="none" fill="hsla(0, 0%, 95%, 1.00)" rx="0.8157894736842105"></rect><rect width="1.631578947368421" height="33.333333333333336" x="532.5175438596492" y="250.00000000000003" stroke="none" fill="hsla(0, 0%, 95%, 1.00)" rx="0.8157894736842105"></rect><rect width="33.333333333333336" height="1.631578947368421" x="583.3333333333334" y="265.85087719298247" stroke="none" fill="hsla(0, 0%, 95%, 1.00)" rx="0.8157894736842105"></rect><rect width="1.631578947368421" height="33.333333333333336" x="599.1842105263158" y="250.00000000000003" stroke="none" fill="hsla(0, 0%, 95%, 1.00)" rx="0.8157894736842105"></rect><rect width="33.333333333333336" height="1.631578947368421" x="650" y="265.85087719298247" stroke="none" fill="hsla(0, 0%, 95%, 1.00)" rx="0.8157894736842105"></rect><rect width="1.631578947368421" height="33.333333333333336" x="665.8508771929825" y="250.00000000000003" stroke="none" fill="hsla(0, 0%, 95%, 1.00)" rx="0.8157894736842105"></rect><rect width="33.333333333333336" height="1.631578947368421" x="716.6666666666666" y="265.85087719298247" stroke="none" fill="hsla(0, 0%, 95%, 1.00)" rx="0.8157894736842105"></rect><rect width="1.631578947368421" height="33.333333333333336" x="732.5175438596491" y="250.00000000000003" stroke="none" fill="hsla(0, 0%, 95%, 1.00)" rx="0.8157894736842105"></rect><rect width="33.333333333333336" height="1.631578947368421" x="783.3333333333333" y="265.85087719298247" stroke="none" fill="hsla(0, 0%, 95%, 1.00)" rx="0.8157894736842105"></rect><rect width="1.631578947368421" height="33.333333333333336" x="799.1842105263157" y="250.00000000000003" stroke="none" fill="hsla(0, 0%, 95%, 1.00)" rx="0.8157894736842105"></rect><rect width="33.333333333333336" height="1.631578947368421" x="-16.666666666666668" y="332.51754385964915" stroke="none" fill="hsla(0, 0%, 95%, 1.00)" rx="0.8157894736842105"></rect><rect width="1.631578947368421" height="33.333333333333336" x="-0.8157894736842105" y="316.6666666666667" stroke="none" fill="hsla(0, 0%, 95%, 1.00)" rx="0.8157894736842105"></rect><rect width="33.333333333333336" height="1.631578947368421" x="50" y="332.51754385964915" stroke="none" fill="hsla(0, 0%, 95%, 1.00)" rx="0.8157894736842105"></rect><rect width="1.631578947368421" height="33.333333333333336" x="65.85087719298247" y="316.6666666666667" stroke="none" fill="hsla(0, 0%, 95%, 1.00)" rx="0.8157894736842105"></rect><rect width="33.333333333333336" height="1.631578947368421" x="116.66666666666667" y="332.51754385964915" stroke="none" fill="hsla(0, 0%, 95%, 1.00)" rx="0.8157894736842105"></rect><rect width="1.631578947368421" height="33.333333333333336" x="132.51754385964912" y="316.6666666666667" stroke="none" fill="hsla(0, 0%, 95%, 1.00)" rx="0.8157894736842105"></rect><rect width="33.333333333333336" height="1.631578947368421" x="183.33333333333334" y="332.51754385964915" stroke="none" fill="hsla(0, 0%, 95%, 1.00)" rx="0.8157894736842105"></rect><rect width="1.631578947368421" height="33.333333333333336" x="199.18421052631578" y="316.6666666666667" stroke="none" fill="hsla(0, 0%, 95%, 1.00)" rx="0.8157894736842105"></rect><rect width="33.333333333333336" height="1.631578947368421" x="250.00000000000003" y="332.51754385964915" stroke="none" fill="hsla(0, 0%, 95%, 1.00)" rx="0.8157894736842105"></rect><rect width="1.631578947368421" height="33.333333333333336" x="265.85087719298247" y="316.6666666666667" stroke="none" fill="hsla(0, 0%, 95%, 1.00)" rx="0.8157894736842105"></rect><rect width="33.333333333333336" height="1.631578947368421" x="316.6666666666667" y="332.51754385964915" stroke="none" fill="hsla(0, 0%, 95%, 1.00)" rx="0.8157894736842105"></rect><rect width="1.631578947368421" height="33.333333333333336" x="332.51754385964915" y="316.6666666666667" stroke="none" fill="hsla(0, 0%, 95%, 1.00)" rx="0.8157894736842105"></rect><rect width="33.333333333333336" height="1.631578947368421" x="383.33333333333337" y="332.51754385964915" stroke="none" fill="hsla(0, 0%, 95%, 1.00)" rx="0.8157894736842105"></rect><rect width="1.631578947368421" height="33.333333333333336" x="399.18421052631584" y="316.6666666666667" stroke="none" fill="hsla(0, 0%, 95%, 1.00)" rx="0.8157894736842105"></rect><rect width="33.333333333333336" height="1.631578947368421" x="450.00000000000006" y="332.51754385964915" stroke="none" fill="hsla(0, 0%, 95%, 1.00)" rx="0.8157894736842105"></rect><rect width="1.631578947368421" height="33.333333333333336" x="465.8508771929825" y="316.6666666666667" stroke="none" fill="hsla(0, 0%, 95%, 1.00)" rx="0.8157894736842105"></rect><rect width="33.333333333333336" height="1.631578947368421" x="516.6666666666667" y="332.51754385964915" stroke="none" fill="hsla(0, 0%, 95%, 1.00)" rx="0.8157894736842105"></rect><rect width="1.631578947368421" height="33.333333333333336" x="532.5175438596492" y="316.6666666666667" stroke="none" fill="hsla(0, 0%, 95%, 1.00)" rx="0.8157894736842105"></rect><rect width="33.333333333333336" height="1.631578947368421" x="583.3333333333334" y="332.51754385964915" stroke="none" fill="hsla(0, 0%, 95%, 1.00)" rx="0.8157894736842105"></rect><rect width="1.631578947368421" height="33.333333333333336" x="599.1842105263158" y="316.6666666666667" stroke="none" fill="hsla(0, 0%, 95%, 1.00)" rx="0.8157894736842105"></rect><rect width="33.333333333333336" height="1.631578947368421" x="650" y="332.51754385964915" stroke="none" fill="hsla(0, 0%, 95%, 1.00)" rx="0.8157894736842105"></rect><rect width="1.631578947368421" height="33.333333333333336" x="665.8508771929825" y="316.6666666666667" stroke="none" fill="hsla(0, 0%, 95%, 1.00)" rx="0.8157894736842105"></rect><rect width="33.333333333333336" height="1.631578947368421" x="716.6666666666666" y="332.51754385964915" stroke="none" fill="hsla(0, 0%, 95%, 1.00)" rx="0.8157894736842105"></rect><rect width="1.631578947368421" height="33.333333333333336" x="732.5175438596491" y="316.6666666666667" stroke="none" fill="hsla(0, 0%, 95%, 1.00)" rx="0.8157894736842105"></rect><rect width="33.333333333333336" height="1.631578947368421" x="783.3333333333333" y="332.51754385964915" stroke="none" fill="hsla(0, 0%, 95%, 1.00)" rx="0.8157894736842105"></rect><rect width="1.631578947368421" height="33.333333333333336" x="799.1842105263157" y="316.6666666666667" stroke="none" fill="hsla(0, 0%, 95%, 1.00)" rx="0.8157894736842105"></rect><rect width="33.333333333333336" height="1.631578947368421" x="-16.666666666666668" y="399.18421052631584" stroke="none" fill="hsla(0, 0%, 95%, 1.00)" rx="0.8157894736842105"></rect><rect width="1.631578947368421" height="33.333333333333336" x="-0.8157894736842105" y="383.33333333333337" stroke="none" fill="hsla(0, 0%, 95%, 1.00)" rx="0.8157894736842105"></rect><rect width="33.333333333333336" height="1.631578947368421" x="50" y="399.18421052631584" stroke="none" fill="hsla(0, 0%, 95%, 1.00)" rx="0.8157894736842105"></rect><rect width="1.631578947368421" height="33.333333333333336" x="65.85087719298247" y="383.33333333333337" stroke="none" fill="hsla(0, 0%, 95%, 1.00)" rx="0.8157894736842105"></rect><rect width="33.333333333333336" height="1.631578947368421" x="116.66666666666667" y="399.18421052631584" stroke="none" fill="hsla(0, 0%, 95%, 1.00)" rx="0.8157894736842105"></rect><rect width="1.631578947368421" height="33.333333333333336" x="132.51754385964912" y="383.33333333333337" stroke="none" fill="hsla(0, 0%, 95%, 1.00)" rx="0.8157894736842105"></rect><rect width="33.333333333333336" height="1.631578947368421" x="183.33333333333334" y="399.18421052631584" stroke="none" fill="hsla(0, 0%, 95%, 1.00)" rx="0.8157894736842105"></rect><rect width="1.631578947368421" height="33.333333333333336" x="199.18421052631578" y="383.33333333333337" stroke="none" fill="hsla(0, 0%, 95%, 1.00)" rx="0.8157894736842105"></rect><rect width="33.333333333333336" height="1.631578947368421" x="250.00000000000003" y="399.18421052631584" stroke="none" fill="hsla(0, 0%, 95%, 1.00)" rx="0.8157894736842105"></rect><rect width="1.631578947368421" height="33.333333333333336" x="265.85087719298247" y="383.33333333333337" stroke="none" fill="hsla(0, 0%, 95%, 1.00)" rx="0.8157894736842105"></rect><rect width="33.333333333333336" height="1.631578947368421" x="316.6666666666667" y="399.18421052631584" stroke="none" fill="hsla(0, 0%, 95%, 1.00)" rx="0.8157894736842105"></rect><rect width="1.631578947368421" height="33.333333333333336" x="332.51754385964915" y="383.33333333333337" stroke="none" fill="hsla(0, 0%, 95%, 1.00)" rx="0.8157894736842105"></rect><rect width="33.333333333333336" height="1.631578947368421" x="383.33333333333337" y="399.18421052631584" stroke="none" fill="hsla(0, 0%, 95%, 1.00)" rx="0.8157894736842105"></rect><rect width="1.631578947368421" height="33.333333333333336" x="399.18421052631584" y="383.33333333333337" stroke="none" fill="hsla(0, 0%, 95%, 1.00)" rx="0.8157894736842105"></rect><rect width="33.333333333333336" height="1.631578947368421" x="450.00000000000006" y="399.18421052631584" stroke="none" fill="hsla(0, 0%, 95%, 1.00)" rx="0.8157894736842105"></rect><rect width="1.631578947368421" height="33.333333333333336" x="465.8508771929825" y="383.33333333333337" stroke="none" fill="hsla(0, 0%, 95%, 1.00)" rx="0.8157894736842105"></rect><rect width="33.333333333333336" height="1.631578947368421" x="516.6666666666667" y="399.18421052631584" stroke="none" fill="hsla(0, 0%, 95%, 1.00)" rx="0.8157894736842105"></rect><rect width="1.631578947368421" height="33.333333333333336" x="532.5175438596492" y="383.33333333333337" stroke="none" fill="hsla(0, 0%, 95%, 1.00)" rx="0.8157894736842105"></rect><rect width="33.333333333333336" height="1.631578947368421" x="583.3333333333334" y="399.18421052631584" stroke="none" fill="hsla(0, 0%, 95%, 1.00)" rx="0.8157894736842105"></rect><rect width="1.631578947368421" height="33.333333333333336" x="599.1842105263158" y="383.33333333333337" stroke="none" fill="hsla(0, 0%, 95%, 1.00)" rx="0.8157894736842105"></rect><rect width="33.333333333333336" height="1.631578947368421" x="650" y="399.18421052631584" stroke="none" fill="hsla(0, 0%, 95%, 1.00)" rx="0.8157894736842105"></rect><rect width="1.631578947368421" height="33.333333333333336" x="665.8508771929825" y="383.33333333333337" stroke="none" fill="hsla(0, 0%, 95%, 1.00)" rx="0.8157894736842105"></rect><rect width="33.333333333333336" height="1.631578947368421" x="716.6666666666666" y="399.18421052631584" stroke="none" fill="hsla(0, 0%, 95%, 1.00)" rx="0.8157894736842105"></rect><rect width="1.631578947368421" height="33.333333333333336" x="732.5175438596491" y="383.33333333333337" stroke="none" fill="hsla(0, 0%, 95%, 1.00)" rx="0.8157894736842105"></rect><rect width="33.333333333333336" height="1.631578947368421" x="783.3333333333333" y="399.18421052631584" stroke="none" fill="hsla(0, 0%, 95%, 1.00)" rx="0.8157894736842105"></rect><rect width="1.631578947368421" height="33.333333333333336" x="799.1842105263157" y="383.33333333333337" stroke="none" fill="hsla(0, 0%, 95%, 1.00)" rx="0.8157894736842105"></rect><rect width="33.333333333333336" height="1.631578947368421" x="-16.666666666666668" y="465.8508771929825" stroke="none" fill="hsla(0, 0%, 95%, 1.00)" rx="0.8157894736842105"></rect><rect width="1.631578947368421" height="33.333333333333336" x="-0.8157894736842105" y="450.00000000000006" stroke="none" fill="hsla(0, 0%, 95%, 1.00)" rx="0.8157894736842105"></rect><rect width="33.333333333333336" height="1.631578947368421" x="50" y="465.8508771929825" stroke="none" fill="hsla(0, 0%, 95%, 1.00)" rx="0.8157894736842105"></rect><rect width="1.631578947368421" height="33.333333333333336" x="65.85087719298247" y="450.00000000000006" stroke="none" fill="hsla(0, 0%, 95%, 1.00)" rx="0.8157894736842105"></rect><rect width="33.333333333333336" height="1.631578947368421" x="116.66666666666667" y="465.8508771929825" stroke="none" fill="hsla(0, 0%, 95%, 1.00)" rx="0.8157894736842105"></rect><rect width="1.631578947368421" height="33.333333333333336" x="132.51754385964912" y="450.00000000000006" stroke="none" fill="hsla(0, 0%, 95%, 1.00)" rx="0.8157894736842105"></rect><rect width="33.333333333333336" height="1.631578947368421" x="183.33333333333334" y="465.8508771929825" stroke="none" fill="hsla(0, 0%, 95%, 1.00)" rx="0.8157894736842105"></rect><rect width="1.631578947368421" height="33.333333333333336" x="199.18421052631578" y="450.00000000000006" stroke="none" fill="hsla(0, 0%, 95%, 1.00)" rx="0.8157894736842105"></rect><rect width="33.333333333333336" height="1.631578947368421" x="250.00000000000003" y="465.8508771929825" stroke="none" fill="hsla(0, 0%, 95%, 1.00)" rx="0.8157894736842105"></rect><rect width="1.631578947368421" height="33.333333333333336" x="265.85087719298247" y="450.00000000000006" stroke="none" fill="hsla(0, 0%, 95%, 1.00)" rx="0.8157894736842105"></rect><rect width="33.333333333333336" height="1.631578947368421" x="316.6666666666667" y="465.8508771929825" stroke="none" fill="hsla(0, 0%, 95%, 1.00)" rx="0.8157894736842105"></rect><rect width="1.631578947368421" height="33.333333333333336" x="332.51754385964915" y="450.00000000000006" stroke="none" fill="hsla(0, 0%, 95%, 1.00)" rx="0.8157894736842105"></rect><rect width="33.333333333333336" height="1.631578947368421" x="383.33333333333337" y="465.8508771929825" stroke="none" fill="hsla(0, 0%, 95%, 1.00)" rx="0.8157894736842105"></rect><rect width="1.631578947368421" height="33.333333333333336" x="399.18421052631584" y="450.00000000000006" stroke="none" fill="hsla(0, 0%, 95%, 1.00)" rx="0.8157894736842105"></rect><rect width="33.333333333333336" height="1.631578947368421" x="450.00000000000006" y="465.8508771929825" stroke="none" fill="hsla(0, 0%, 95%, 1.00)" rx="0.8157894736842105"></rect><rect width="1.631578947368421" height="33.333333333333336" x="465.8508771929825" y="450.00000000000006" stroke="none" fill="hsla(0, 0%, 95%, 1.00)" rx="0.8157894736842105"></rect><rect width="33.333333333333336" height="1.631578947368421" x="516.6666666666667" y="465.8508771929825" stroke="none" fill="hsla(0, 0%, 95%, 1.00)" rx="0.8157894736842105"></rect><rect width="1.631578947368421" height="33.333333333333336" x="532.5175438596492" y="450.00000000000006" stroke="none" fill="hsla(0, 0%, 95%, 1.00)" rx="0.8157894736842105"></rect><rect width="33.333333333333336" height="1.631578947368421" x="583.3333333333334" y="465.8508771929825" stroke="none" fill="hsla(0, 0%, 95%, 1.00)" rx="0.8157894736842105"></rect><rect width="1.631578947368421" height="33.333333333333336" x="599.1842105263158" y="450.00000000000006" stroke="none" fill="hsla(0, 0%, 95%, 1.00)" rx="0.8157894736842105"></rect><rect width="33.333333333333336" height="1.631578947368421" x="650" y="465.8508771929825" stroke="none" fill="hsla(0, 0%, 95%, 1.00)" rx="0.8157894736842105"></rect><rect width="1.631578947368421" height="33.333333333333336" x="665.8508771929825" y="450.00000000000006" stroke="none" fill="hsla(0, 0%, 95%, 1.00)" rx="0.8157894736842105"></rect><rect width="33.333333333333336" height="1.631578947368421" x="716.6666666666666" y="465.8508771929825" stroke="none" fill="hsla(0, 0%, 95%, 1.00)" rx="0.8157894736842105"></rect><rect width="1.631578947368421" height="33.333333333333336" x="732.5175438596491" y="450.00000000000006" stroke="none" fill="hsla(0, 0%, 95%, 1.00)" rx="0.8157894736842105"></rect><rect width="33.333333333333336" height="1.631578947368421" x="783.3333333333333" y="465.8508771929825" stroke="none" fill="hsla(0, 0%, 95%, 1.00)" rx="0.8157894736842105"></rect><rect width="1.631578947368421" height="33.333333333333336" x="799.1842105263157" y="450.00000000000006" stroke="none" fill="hsla(0, 0%, 95%, 1.00)" rx="0.8157894736842105"></rect><rect width="33.333333333333336" height="1.631578947368421" x="-16.666666666666668" y="532.5175438596492" stroke="none" fill="hsla(0, 0%, 95%, 1.00)" rx="0.8157894736842105"></rect><rect width="1.631578947368421" height="33.333333333333336" x="-0.8157894736842105" y="516.6666666666667" stroke="none" fill="hsla(0, 0%, 95%, 1.00)" rx="0.8157894736842105"></rect><rect width="33.333333333333336" height="1.631578947368421" x="50" y="532.5175438596492" stroke="none" fill="hsla(0, 0%, 95%, 1.00)" rx="0.8157894736842105"></rect><rect width="1.631578947368421" height="33.333333333333336" x="65.85087719298247" y="516.6666666666667" stroke="none" fill="hsla(0, 0%, 95%, 1.00)" rx="0.8157894736842105"></rect><rect width="33.333333333333336" height="1.631578947368421" x="116.66666666666667" y="532.5175438596492" stroke="none" fill="hsla(0, 0%, 95%, 1.00)" rx="0.8157894736842105"></rect><rect width="1.631578947368421" height="33.333333333333336" x="132.51754385964912" y="516.6666666666667" stroke="none" fill="hsla(0, 0%, 95%, 1.00)" rx="0.8157894736842105"></rect><rect width="33.333333333333336" height="1.631578947368421" x="183.33333333333334" y="532.5175438596492" stroke="none" fill="hsla(0, 0%, 95%, 1.00)" rx="0.8157894736842105"></rect><rect width="1.631578947368421" height="33.333333333333336" x="199.18421052631578" y="516.6666666666667" stroke="none" fill="hsla(0, 0%, 95%, 1.00)" rx="0.8157894736842105"></rect><rect width="33.333333333333336" height="1.631578947368421" x="250.00000000000003" y="532.5175438596492" stroke="none" fill="hsla(0, 0%, 95%, 1.00)" rx="0.8157894736842105"></rect><rect width="1.631578947368421" height="33.333333333333336" x="265.85087719298247" y="516.6666666666667" stroke="none" fill="hsla(0, 0%, 95%, 1.00)" rx="0.8157894736842105"></rect><rect width="33.333333333333336" height="1.631578947368421" x="316.6666666666667" y="532.5175438596492" stroke="none" fill="hsla(0, 0%, 95%, 1.00)" rx="0.8157894736842105"></rect><rect width="1.631578947368421" height="33.333333333333336" x="332.51754385964915" y="516.6666666666667" stroke="none" fill="hsla(0, 0%, 95%, 1.00)" rx="0.8157894736842105"></rect><rect width="33.333333333333336" height="1.631578947368421" x="383.33333333333337" y="532.5175438596492" stroke="none" fill="hsla(0, 0%, 95%, 1.00)" rx="0.8157894736842105"></rect><rect width="1.631578947368421" height="33.333333333333336" x="399.18421052631584" y="516.6666666666667" stroke="none" fill="hsla(0, 0%, 95%, 1.00)" rx="0.8157894736842105"></rect><rect width="33.333333333333336" height="1.631578947368421" x="450.00000000000006" y="532.5175438596492" stroke="none" fill="hsla(0, 0%, 95%, 1.00)" rx="0.8157894736842105"></rect><rect width="1.631578947368421" height="33.333333333333336" x="465.8508771929825" y="516.6666666666667" stroke="none" fill="hsla(0, 0%, 95%, 1.00)" rx="0.8157894736842105"></rect><rect width="33.333333333333336" height="1.631578947368421" x="516.6666666666667" y="532.5175438596492" stroke="none" fill="hsla(0, 0%, 95%, 1.00)" rx="0.8157894736842105"></rect><rect width="1.631578947368421" height="33.333333333333336" x="532.5175438596492" y="516.6666666666667" stroke="none" fill="hsla(0, 0%, 95%, 1.00)" rx="0.8157894736842105"></rect><rect width="33.333333333333336" height="1.631578947368421" x="583.3333333333334" y="532.5175438596492" stroke="none" fill="hsla(0, 0%, 95%, 1.00)" rx="0.8157894736842105"></rect><rect width="1.631578947368421" height="33.333333333333336" x="599.1842105263158" y="516.6666666666667" stroke="none" fill="hsla(0, 0%, 95%, 1.00)" rx="0.8157894736842105"></rect><rect width="33.333333333333336" height="1.631578947368421" x="650" y="532.5175438596492" stroke="none" fill="hsla(0, 0%, 95%, 1.00)" rx="0.8157894736842105"></rect><rect width="1.631578947368421" height="33.333333333333336" x="665.8508771929825" y="516.6666666666667" stroke="none" fill="hsla(0, 0%, 95%, 1.00)" rx="0.8157894736842105"></rect><rect width="33.333333333333336" height="1.631578947368421" x="716.6666666666666" y="532.5175438596492" stroke="none" fill="hsla(0, 0%, 95%, 1.00)" rx="0.8157894736842105"></rect><rect width="1.631578947368421" height="33.333333333333336" x="732.5175438596491" y="516.6666666666667" stroke="none" fill="hsla(0, 0%, 95%, 1.00)" rx="0.8157894736842105"></rect><rect width="33.333333333333336" height="1.631578947368421" x="783.3333333333333" y="532.5175438596492" stroke="none" fill="hsla(0, 0%, 95%, 1.00)" rx="0.8157894736842105"></rect><rect width="1.631578947368421" height="33.333333333333336" x="799.1842105263157" y="516.6666666666667" stroke="none" fill="hsla(0, 0%, 95%, 1.00)" rx="0.8157894736842105"></rect><rect width="33.333333333333336" height="1.631578947368421" x="-16.666666666666668" y="599.1842105263158" stroke="none" fill="hsla(0, 0%, 95%, 1.00)" rx="0.8157894736842105"></rect><rect width="1.631578947368421" height="33.333333333333336" x="-0.8157894736842105" y="583.3333333333334" stroke="none" fill="hsla(0, 0%, 95%, 1.00)" rx="0.8157894736842105"></rect><rect width="33.333333333333336" height="1.631578947368421" x="50" y="599.1842105263158" stroke="none" fill="hsla(0, 0%, 95%, 1.00)" rx="0.8157894736842105"></rect><rect width="1.631578947368421" height="33.333333333333336" x="65.85087719298247" y="583.3333333333334" stroke="none" fill="hsla(0, 0%, 95%, 1.00)" rx="0.8157894736842105"></rect><rect width="33.333333333333336" height="1.631578947368421" x="116.66666666666667" y="599.1842105263158" stroke="none" fill="hsla(0, 0%, 95%, 1.00)" rx="0.8157894736842105"></rect><rect width="1.631578947368421" height="33.333333333333336" x="132.51754385964912" y="583.3333333333334" stroke="none" fill="hsla(0, 0%, 95%, 1.00)" rx="0.8157894736842105"></rect><rect width="33.333333333333336" height="1.631578947368421" x="183.33333333333334" y="599.1842105263158" stroke="none" fill="hsla(0, 0%, 95%, 1.00)" rx="0.8157894736842105"></rect><rect width="1.631578947368421" height="33.333333333333336" x="199.18421052631578" y="583.3333333333334" stroke="none" fill="hsla(0, 0%, 95%, 1.00)" rx="0.8157894736842105"></rect><rect width="33.333333333333336" height="1.631578947368421" x="250.00000000000003" y="599.1842105263158" stroke="none" fill="hsla(0, 0%, 95%, 1.00)" rx="0.8157894736842105"></rect><rect width="1.631578947368421" height="33.333333333333336" x="265.85087719298247" y="583.3333333333334" stroke="none" fill="hsla(0, 0%, 95%, 1.00)" rx="0.8157894736842105"></rect><rect width="33.333333333333336" height="1.631578947368421" x="316.6666666666667" y="599.1842105263158" stroke="none" fill="hsla(0, 0%, 95%, 1.00)" rx="0.8157894736842105"></rect><rect width="1.631578947368421" height="33.333333333333336" x="332.51754385964915" y="583.3333333333334" stroke="none" fill="hsla(0, 0%, 95%, 1.00)" rx="0.8157894736842105"></rect><rect width="33.333333333333336" height="1.631578947368421" x="383.33333333333337" y="599.1842105263158" stroke="none" fill="hsla(0, 0%, 95%, 1.00)" rx="0.8157894736842105"></rect><rect width="1.631578947368421" height="33.333333333333336" x="399.18421052631584" y="583.3333333333334" stroke="none" fill="hsla(0, 0%, 95%, 1.00)" rx="0.8157894736842105"></rect><rect width="33.333333333333336" height="1.631578947368421" x="450.00000000000006" y="599.1842105263158" stroke="none" fill="hsla(0, 0%, 95%, 1.00)" rx="0.8157894736842105"></rect><rect width="1.631578947368421" height="33.333333333333336" x="465.8508771929825" y="583.3333333333334" stroke="none" fill="hsla(0, 0%, 95%, 1.00)" rx="0.8157894736842105"></rect><rect width="33.333333333333336" height="1.631578947368421" x="516.6666666666667" y="599.1842105263158" stroke="none" fill="hsla(0, 0%, 95%, 1.00)" rx="0.8157894736842105"></rect><rect width="1.631578947368421" height="33.333333333333336" x="532.5175438596492" y="583.3333333333334" stroke="none" fill="hsla(0, 0%, 95%, 1.00)" rx="0.8157894736842105"></rect><rect width="33.333333333333336" height="1.631578947368421" x="583.3333333333334" y="599.1842105263158" stroke="none" fill="hsla(0, 0%, 95%, 1.00)" rx="0.8157894736842105"></rect><rect width="1.631578947368421" height="33.333333333333336" x="599.1842105263158" y="583.3333333333334" stroke="none" fill="hsla(0, 0%, 95%, 1.00)" rx="0.8157894736842105"></rect><rect width="33.333333333333336" height="1.631578947368421" x="650" y="599.1842105263158" stroke="none" fill="hsla(0, 0%, 95%, 1.00)" rx="0.8157894736842105"></rect><rect width="1.631578947368421" height="33.333333333333336" x="665.8508771929825" y="583.3333333333334" stroke="none" fill="hsla(0, 0%, 95%, 1.00)" rx="0.8157894736842105"></rect><rect width="33.333333333333336" height="1.631578947368421" x="716.6666666666666" y="599.1842105263158" stroke="none" fill="hsla(0, 0%, 95%, 1.00)" rx="0.8157894736842105"></rect><rect width="1.631578947368421" height="33.333333333333336" x="732.5175438596491" y="583.3333333333334" stroke="none" fill="hsla(0, 0%, 95%, 1.00)" rx="0.8157894736842105"></rect><rect width="33.333333333333336" height="1.631578947368421" x="783.3333333333333" y="599.1842105263158" stroke="none" fill="hsla(0, 0%, 95%, 1.00)" rx="0.8157894736842105"></rect><rect width="1.631578947368421" height="33.333333333333336" x="799.1842105263157" y="583.3333333333334" stroke="none" fill="hsla(0, 0%, 95%, 1.00)" rx="0.8157894736842105"></rect><rect width="33.333333333333336" height="1.631578947368421" x="-16.666666666666668" y="665.8508771929825" stroke="none" fill="hsla(0, 0%, 95%, 1.00)" rx="0.8157894736842105"></rect><rect width="1.631578947368421" height="33.333333333333336" x="-0.8157894736842105" y="650" stroke="none" fill="hsla(0, 0%, 95%, 1.00)" rx="0.8157894736842105"></rect><rect width="33.333333333333336" height="1.631578947368421" x="50" y="665.8508771929825" stroke="none" fill="hsla(0, 0%, 95%, 1.00)" rx="0.8157894736842105"></rect><rect width="1.631578947368421" height="33.333333333333336" x="65.85087719298247" y="650" stroke="none" fill="hsla(0, 0%, 95%, 1.00)" rx="0.8157894736842105"></rect><rect width="33.333333333333336" height="1.631578947368421" x="116.66666666666667" y="665.8508771929825" stroke="none" fill="hsla(0, 0%, 95%, 1.00)" rx="0.8157894736842105"></rect><rect width="1.631578947368421" height="33.333333333333336" x="132.51754385964912" y="650" stroke="none" fill="hsla(0, 0%, 95%, 1.00)" rx="0.8157894736842105"></rect><rect width="33.333333333333336" height="1.631578947368421" x="183.33333333333334" y="665.8508771929825" stroke="none" fill="hsla(0, 0%, 95%, 1.00)" rx="0.8157894736842105"></rect><rect width="1.631578947368421" height="33.333333333333336" x="199.18421052631578" y="650" stroke="none" fill="hsla(0, 0%, 95%, 1.00)" rx="0.8157894736842105"></rect><rect width="33.333333333333336" height="1.631578947368421" x="250.00000000000003" y="665.8508771929825" stroke="none" fill="hsla(0, 0%, 95%, 1.00)" rx="0.8157894736842105"></rect><rect width="1.631578947368421" height="33.333333333333336" x="265.85087719298247" y="650" stroke="none" fill="hsla(0, 0%, 95%, 1.00)" rx="0.8157894736842105"></rect><rect width="33.333333333333336" height="1.631578947368421" x="316.6666666666667" y="665.8508771929825" stroke="none" fill="hsla(0, 0%, 95%, 1.00)" rx="0.8157894736842105"></rect><rect width="1.631578947368421" height="33.333333333333336" x="332.51754385964915" y="650" stroke="none" fill="hsla(0, 0%, 95%, 1.00)" rx="0.8157894736842105"></rect><rect width="33.333333333333336" height="1.631578947368421" x="383.33333333333337" y="665.8508771929825" stroke="none" fill="hsla(0, 0%, 95%, 1.00)" rx="0.8157894736842105"></rect><rect width="1.631578947368421" height="33.333333333333336" x="399.18421052631584" y="650" stroke="none" fill="hsla(0, 0%, 95%, 1.00)" rx="0.8157894736842105"></rect><rect width="33.333333333333336" height="1.631578947368421" x="450.00000000000006" y="665.8508771929825" stroke="none" fill="hsla(0, 0%, 95%, 1.00)" rx="0.8157894736842105"></rect><rect width="1.631578947368421" height="33.333333333333336" x="465.8508771929825" y="650" stroke="none" fill="hsla(0, 0%, 95%, 1.00)" rx="0.8157894736842105"></rect><rect width="33.333333333333336" height="1.631578947368421" x="516.6666666666667" y="665.8508771929825" stroke="none" fill="hsla(0, 0%, 95%, 1.00)" rx="0.8157894736842105"></rect><rect width="1.631578947368421" height="33.333333333333336" x="532.5175438596492" y="650" stroke="none" fill="hsla(0, 0%, 95%, 1.00)" rx="0.8157894736842105"></rect><rect width="33.333333333333336" height="1.631578947368421" x="583.3333333333334" y="665.8508771929825" stroke="none" fill="hsla(0, 0%, 95%, 1.00)" rx="0.8157894736842105"></rect><rect width="1.631578947368421" height="33.333333333333336" x="599.1842105263158" y="650" stroke="none" fill="hsla(0, 0%, 95%, 1.00)" rx="0.8157894736842105"></rect><rect width="33.333333333333336" height="1.631578947368421" x="650" y="665.8508771929825" stroke="none" fill="hsla(0, 0%, 95%, 1.00)" rx="0.8157894736842105"></rect><rect width="1.631578947368421" height="33.333333333333336" x="665.8508771929825" y="650" stroke="none" fill="hsla(0, 0%, 95%, 1.00)" rx="0.8157894736842105"></rect><rect width="33.333333333333336" height="1.631578947368421" x="716.6666666666666" y="665.8508771929825" stroke="none" fill="hsla(0, 0%, 95%, 1.00)" rx="0.8157894736842105"></rect><rect width="1.631578947368421" height="33.333333333333336" x="732.5175438596491" y="650" stroke="none" fill="hsla(0, 0%, 95%, 1.00)" rx="0.8157894736842105"></rect><rect width="33.333333333333336" height="1.631578947368421" x="783.3333333333333" y="665.8508771929825" stroke="none" fill="hsla(0, 0%, 95%, 1.00)" rx="0.8157894736842105"></rect><rect width="1.631578947368421" height="33.333333333333336" x="799.1842105263157" y="650" stroke="none" fill="hsla(0, 0%, 95%, 1.00)" rx="0.8157894736842105"></rect><rect width="33.333333333333336" height="1.631578947368421" x="-16.666666666666668" y="732.5175438596491" stroke="none" fill="hsla(0, 0%, 95%, 1.00)" rx="0.8157894736842105"></rect><rect width="1.631578947368421" height="33.333333333333336" x="-0.8157894736842105" y="716.6666666666666" stroke="none" fill="hsla(0, 0%, 95%, 1.00)" rx="0.8157894736842105"></rect><rect width="33.333333333333336" height="1.631578947368421" x="50" y="732.5175438596491" stroke="none" fill="hsla(0, 0%, 95%, 1.00)" rx="0.8157894736842105"></rect><rect width="1.631578947368421" height="33.333333333333336" x="65.85087719298247" y="716.6666666666666" stroke="none" fill="hsla(0, 0%, 95%, 1.00)" rx="0.8157894736842105"></rect><rect width="33.333333333333336" height="1.631578947368421" x="116.66666666666667" y="732.5175438596491" stroke="none" fill="hsla(0, 0%, 95%, 1.00)" rx="0.8157894736842105"></rect><rect width="1.631578947368421" height="33.333333333333336" x="132.51754385964912" y="716.6666666666666" stroke="none" fill="hsla(0, 0%, 95%, 1.00)" rx="0.8157894736842105"></rect><rect width="33.333333333333336" height="1.631578947368421" x="183.33333333333334" y="732.5175438596491" stroke="none" fill="hsla(0, 0%, 95%, 1.00)" rx="0.8157894736842105"></rect><rect width="1.631578947368421" height="33.333333333333336" x="199.18421052631578" y="716.6666666666666" stroke="none" fill="hsla(0, 0%, 95%, 1.00)" rx="0.8157894736842105"></rect><rect width="33.333333333333336" height="1.631578947368421" x="250.00000000000003" y="732.5175438596491" stroke="none" fill="hsla(0, 0%, 95%, 1.00)" rx="0.8157894736842105"></rect><rect width="1.631578947368421" height="33.333333333333336" x="265.85087719298247" y="716.6666666666666" stroke="none" fill="hsla(0, 0%, 95%, 1.00)" rx="0.8157894736842105"></rect><rect width="33.333333333333336" height="1.631578947368421" x="316.6666666666667" y="732.5175438596491" stroke="none" fill="hsla(0, 0%, 95%, 1.00)" rx="0.8157894736842105"></rect><rect width="1.631578947368421" height="33.333333333333336" x="332.51754385964915" y="716.6666666666666" stroke="none" fill="hsla(0, 0%, 95%, 1.00)" rx="0.8157894736842105"></rect><rect width="33.333333333333336" height="1.631578947368421" x="383.33333333333337" y="732.5175438596491" stroke="none" fill="hsla(0, 0%, 95%, 1.00)" rx="0.8157894736842105"></rect><rect width="1.631578947368421" height="33.333333333333336" x="399.18421052631584" y="716.6666666666666" stroke="none" fill="hsla(0, 0%, 95%, 1.00)" rx="0.8157894736842105"></rect><rect width="33.333333333333336" height="1.631578947368421" x="450.00000000000006" y="732.5175438596491" stroke="none" fill="hsla(0, 0%, 95%, 1.00)" rx="0.8157894736842105"></rect><rect width="1.631578947368421" height="33.333333333333336" x="465.8508771929825" y="716.6666666666666" stroke="none" fill="hsla(0, 0%, 95%, 1.00)" rx="0.8157894736842105"></rect><rect width="33.333333333333336" height="1.631578947368421" x="516.6666666666667" y="732.5175438596491" stroke="none" fill="hsla(0, 0%, 95%, 1.00)" rx="0.8157894736842105"></rect><rect width="1.631578947368421" height="33.333333333333336" x="532.5175438596492" y="716.6666666666666" stroke="none" fill="hsla(0, 0%, 95%, 1.00)" rx="0.8157894736842105"></rect><rect width="33.333333333333336" height="1.631578947368421" x="583.3333333333334" y="732.5175438596491" stroke="none" fill="hsla(0, 0%, 95%, 1.00)" rx="0.8157894736842105"></rect><rect width="1.631578947368421" height="33.333333333333336" x="599.1842105263158" y="716.6666666666666" stroke="none" fill="hsla(0, 0%, 95%, 1.00)" rx="0.8157894736842105"></rect><rect width="33.333333333333336" height="1.631578947368421" x="650" y="732.5175438596491" stroke="none" fill="hsla(0, 0%, 95%, 1.00)" rx="0.8157894736842105"></rect><rect width="1.631578947368421" height="33.333333333333336" x="665.8508771929825" y="716.6666666666666" stroke="none" fill="hsla(0, 0%, 95%, 1.00)" rx="0.8157894736842105"></rect><rect width="33.333333333333336" height="1.631578947368421" x="716.6666666666666" y="732.5175438596491" stroke="none" fill="hsla(0, 0%, 95%, 1.00)" rx="0.8157894736842105"></rect><rect width="1.631578947368421" height="33.333333333333336" x="732.5175438596491" y="716.6666666666666" stroke="none" fill="hsla(0, 0%, 95%, 1.00)" rx="0.8157894736842105"></rect><rect width="33.333333333333336" height="1.631578947368421" x="783.3333333333333" y="732.5175438596491" stroke="none" fill="hsla(0, 0%, 95%, 1.00)" rx="0.8157894736842105"></rect><rect width="1.631578947368421" height="33.333333333333336" x="799.1842105263157" y="716.6666666666666" stroke="none" fill="hsla(0, 0%, 95%, 1.00)" rx="0.8157894736842105"></rect><rect width="33.333333333333336" height="1.631578947368421" x="-16.666666666666668" y="799.1842105263157" stroke="none" fill="hsla(0, 0%, 95%, 1.00)" rx="0.8157894736842105"></rect><rect width="1.631578947368421" height="33.333333333333336" x="-0.8157894736842105" y="783.3333333333333" stroke="none" fill="hsla(0, 0%, 95%, 1.00)" rx="0.8157894736842105"></rect><rect width="33.333333333333336" height="1.631578947368421" x="50" y="799.1842105263157" stroke="none" fill="hsla(0, 0%, 95%, 1.00)" rx="0.8157894736842105"></rect><rect width="1.631578947368421" height="33.333333333333336" x="65.85087719298247" y="783.3333333333333" stroke="none" fill="hsla(0, 0%, 95%, 1.00)" rx="0.8157894736842105"></rect><rect width="33.333333333333336" height="1.631578947368421" x="116.66666666666667" y="799.1842105263157" stroke="none" fill="hsla(0, 0%, 95%, 1.00)" rx="0.8157894736842105"></rect><rect width="1.631578947368421" height="33.333333333333336" x="132.51754385964912" y="783.3333333333333" stroke="none" fill="hsla(0, 0%, 95%, 1.00)" rx="0.8157894736842105"></rect><rect width="33.333333333333336" height="1.631578947368421" x="183.33333333333334" y="799.1842105263157" stroke="none" fill="hsla(0, 0%, 95%, 1.00)" rx="0.8157894736842105"></rect><rect width="1.631578947368421" height="33.333333333333336" x="199.18421052631578" y="783.3333333333333" stroke="none" fill="hsla(0, 0%, 95%, 1.00)" rx="0.8157894736842105"></rect><rect width="33.333333333333336" height="1.631578947368421" x="250.00000000000003" y="799.1842105263157" stroke="none" fill="hsla(0, 0%, 95%, 1.00)" rx="0.8157894736842105"></rect><rect width="1.631578947368421" height="33.333333333333336" x="265.85087719298247" y="783.3333333333333" stroke="none" fill="hsla(0, 0%, 95%, 1.00)" rx="0.8157894736842105"></rect><rect width="33.333333333333336" height="1.631578947368421" x="316.6666666666667" y="799.1842105263157" stroke="none" fill="hsla(0, 0%, 95%, 1.00)" rx="0.8157894736842105"></rect><rect width="1.631578947368421" height="33.333333333333336" x="332.51754385964915" y="783.3333333333333" stroke="none" fill="hsla(0, 0%, 95%, 1.00)" rx="0.8157894736842105"></rect><rect width="33.333333333333336" height="1.631578947368421" x="383.33333333333337" y="799.1842105263157" stroke="none" fill="hsla(0, 0%, 95%, 1.00)" rx="0.8157894736842105"></rect><rect width="1.631578947368421" height="33.333333333333336" x="399.18421052631584" y="783.3333333333333" stroke="none" fill="hsla(0, 0%, 95%, 1.00)" rx="0.8157894736842105"></rect><rect width="33.333333333333336" height="1.631578947368421" x="450.00000000000006" y="799.1842105263157" stroke="none" fill="hsla(0, 0%, 95%, 1.00)" rx="0.8157894736842105"></rect><rect width="1.631578947368421" height="33.333333333333336" x="465.8508771929825" y="783.3333333333333" stroke="none" fill="hsla(0, 0%, 95%, 1.00)" rx="0.8157894736842105"></rect><rect width="33.333333333333336" height="1.631578947368421" x="516.6666666666667" y="799.1842105263157" stroke="none" fill="hsla(0, 0%, 95%, 1.00)" rx="0.8157894736842105"></rect><rect width="1.631578947368421" height="33.333333333333336" x="532.5175438596492" y="783.3333333333333" stroke="none" fill="hsla(0, 0%, 95%, 1.00)" rx="0.8157894736842105"></rect><rect width="33.333333333333336" height="1.631578947368421" x="583.3333333333334" y="799.1842105263157" stroke="none" fill="hsla(0, 0%, 95%, 1.00)" rx="0.8157894736842105"></rect><rect width="1.631578947368421" height="33.333333333333336" x="599.1842105263158" y="783.3333333333333" stroke="none" fill="hsla(0, 0%, 95%, 1.00)" rx="0.8157894736842105"></rect><rect width="33.333333333333336" height="1.631578947368421" x="650" y="799.1842105263157" stroke="none" fill="hsla(0, 0%, 95%, 1.00)" rx="0.8157894736842105"></rect><rect width="1.631578947368421" height="33.333333333333336" x="665.8508771929825" y="783.3333333333333" stroke="none" fill="hsla(0, 0%, 95%, 1.00)" rx="0.8157894736842105"></rect><rect width="33.333333333333336" height="1.631578947368421" x="716.6666666666666" y="799.1842105263157" stroke="none" fill="hsla(0, 0%, 95%, 1.00)" rx="0.8157894736842105"></rect><rect width="1.631578947368421" height="33.333333333333336" x="732.5175438596491" y="783.3333333333333" stroke="none" fill="hsla(0, 0%, 95%, 1.00)" rx="0.8157894736842105"></rect><rect width="33.333333333333336" height="1.631578947368421" x="783.3333333333333" y="799.1842105263157" stroke="none" fill="hsla(0, 0%, 95%, 1.00)" rx="0.8157894736842105"></rect><rect width="1.631578947368421" height="33.333333333333336" x="799.1842105263157" y="783.3333333333333" stroke="none" fill="hsla(0, 0%, 95%, 1.00)" rx="0.8157894736842105"></rect></g></svg>